<svg width="15" height="15" viewBox="0 0 15 15" fill="none" xmlns="http://www.w3.org/2000/svg">
<path d="M13.3333 0H1.66667C0.75 0 0 0.75 0 1.66667V13.3333C0 14.25 0.75 15 1.66667 15H13.3333C14.25 15 15 14.25 15 13.3333V1.66667C15 0.75 14.25 0 13.3333 0ZM7.5 2.5C9.10833 2.5 10.4167 3.80833 10.4167 5.41667C10.4167 7.025 9.10833 8.33333 7.5 8.33333C5.89167 8.33333 4.58333 7.025 4.58333 5.41667C4.58333 3.80833 5.89167 2.5 7.5 2.5ZM13.3333 13.3333H1.66667V13.1417C1.66667 12.625 1.9 12.1417 2.3 11.825C3.725 10.6833 5.53333 10 7.5 10C9.46667 10 11.275 10.6833 12.7 11.825C13.1 12.1417 13.3333 12.6333 13.3333 13.1417V13.3333Z" fill="white"/>
</svg>
