<svg width="22" height="22" viewBox="0 0 22 22" fill="none" xmlns="http://www.w3.org/2000/svg">
<path d="M17.4167 17.4166H4.58333V7.33329H17.4167M14.6667 0.916626V2.74996H7.33333V0.916626H5.5V2.74996H4.58333C3.56583 2.74996 2.75 3.56579 2.75 4.58329V17.4166C2.75 17.9029 2.94315 18.3692 3.28697 18.713C3.63079 19.0568 4.0971 19.25 4.58333 19.25H17.4167C17.9029 19.25 18.3692 19.0568 18.713 18.713C19.0568 18.3692 19.25 17.9029 19.25 17.4166V4.58329C19.25 4.09706 19.0568 3.63075 18.713 3.28693C18.3692 2.94311 17.9029 2.74996 17.4167 2.74996H16.5V0.916626M15.5833 11H11V15.5833H15.5833V11Z" fill="white"/>
</svg>
