<svg width="12" height="12" viewBox="0 0 12 12" fill="none" xmlns="http://www.w3.org/2000/svg">
<path d="M3.08337 4.63906C3.08337 4.22645 3.24728 3.83074 3.53904 3.53898C3.8308 3.24722 4.22651 3.08331 4.63912 3.08331H9.69429C9.89859 3.08331 10.1009 3.12355 10.2897 3.20174C10.4784 3.27992 10.6499 3.39452 10.7944 3.53898C10.9388 3.68345 11.0534 3.85495 11.1316 4.0437C11.2098 4.23246 11.25 4.43476 11.25 4.63906V9.69423C11.25 9.89853 11.2098 10.1008 11.1316 10.2896C11.0534 10.4783 10.9388 10.6498 10.7944 10.7943C10.6499 10.9388 10.4784 11.0534 10.2897 11.1316C10.1009 11.2097 9.89859 11.25 9.69429 11.25H4.63912C4.43482 11.25 4.23252 11.2097 4.04376 11.1316C3.85501 11.0534 3.68351 10.9388 3.53904 10.7943C3.39458 10.6498 3.27998 10.4783 3.2018 10.2896C3.12361 10.1008 3.08337 9.89853 3.08337 9.69423V4.63906Z" stroke="#2A73FF" stroke-width="1.5" stroke-linecap="round" stroke-linejoin="round"/>
<path d="M1.34033 8.76325C1.16125 8.6615 1.0123 8.51416 0.908608 8.33619C0.804921 8.15822 0.750198 7.95597 0.75 7.75V1.91667C0.75 1.275 1.275 0.75 1.91667 0.75H7.75C8.1875 0.75 8.4255 0.974583 8.625 1.33333" stroke="#2A73FF" stroke-width="1.5" stroke-linecap="round" stroke-linejoin="round"/>
</svg>
