<svg width="20" height="20" viewBox="0 0 20 20" fill="none" xmlns="http://www.w3.org/2000/svg">
<path d="M13.6 14.2667V16H1V14.2667C1 14.2667 1 10.8 7.3 10.8C13.6 10.8 13.6 14.2667 13.6 14.2667ZM10.45 6.03337C10.45 5.43343 10.2653 4.84697 9.91913 4.34814C9.573 3.84932 9.08104 3.46053 8.50545 3.23094C7.92986 3.00136 7.2965 2.94129 6.68546 3.05833C6.07442 3.17537 5.51315 3.46427 5.07261 3.88849C4.63208 4.3127 4.33207 4.85319 4.21053 5.4416C4.08898 6.03 4.15136 6.6399 4.38978 7.19417C4.6282 7.74844 5.03194 8.22218 5.54995 8.55548C6.06797 8.88879 6.67699 9.06669 7.3 9.06669C8.13543 9.06669 8.93665 8.74711 9.52739 8.17825C10.1181 7.60939 10.45 6.83786 10.45 6.03337ZM13.546 10.8C14.0993 11.2123 14.552 11.7364 14.8723 12.3353C15.1926 12.9342 15.3727 13.5935 15.4 14.2667V16H19V14.2667C19 14.2667 19 11.1207 13.546 10.8ZM12.7 3.00005C12.0805 2.99672 11.4747 3.17507 10.963 3.51138C11.5097 4.24695 11.8036 5.12882 11.8036 6.03337C11.8036 6.93792 11.5097 7.81979 10.963 8.55536C11.4747 8.89166 12.0805 9.07001 12.7 9.06669C13.5354 9.06669 14.3366 8.74711 14.9274 8.17825C15.5181 7.60939 15.85 6.83786 15.85 6.03337C15.85 5.22888 15.5181 4.45734 14.9274 3.88849C14.3366 3.31963 13.5354 3.00005 12.7 3.00005Z" fill="white"/>
</svg>
