<svg width="20" height="20" viewBox="0 0 20 20" fill="none" xmlns="http://www.w3.org/2000/svg">
<g clip-path="url(#clip0_8_32)">
<path d="M18.3327 8.33398V14.1673C18.3327 14.8304 18.0693 15.4662 17.6004 15.9351C17.1316 16.4039 16.4957 16.6673 15.8327 16.6673H4.16602C3.50297 16.6673 2.86709 16.4039 2.39825 15.9351C1.92941 15.4662 1.66602 14.8304 1.66602 14.1673V8.33398H18.3327ZM14.9993 11.6673H12.4993C12.2783 11.6673 12.0664 11.7551 11.9101 11.9114C11.7538 12.0677 11.666 12.2796 11.666 12.5007C11.666 12.7217 11.7538 12.9336 11.9101 13.0899C12.0664 13.2462 12.2783 13.334 12.4993 13.334H14.9993C15.2204 13.334 15.4323 13.2462 15.5886 13.0899C15.7449 12.9336 15.8327 12.7217 15.8327 12.5007C15.8327 12.2796 15.7449 12.0677 15.5886 11.9114C15.4323 11.7551 15.2204 11.6673 14.9993 11.6673ZM15.8327 3.33398C16.4957 3.33398 17.1316 3.59738 17.6004 4.06622C18.0693 4.53506 18.3327 5.17094 18.3327 5.83398V6.66732H1.66602V5.83398C1.66602 5.17094 1.92941 4.53506 2.39825 4.06622C2.86709 3.59738 3.50297 3.33398 4.16602 3.33398H15.8327Z" fill="white"/>
</g>
<defs>
<clipPath id="clip0_8_32">
<rect width="20" height="20" fill="white"/>
</clipPath>
</defs>
</svg>
