<svg width="14" height="14" viewBox="0 0 14 14" fill="none" xmlns="http://www.w3.org/2000/svg">
<path d="M7 1C5.4087 1 3.88258 1.63214 2.75736 2.75736C1.63214 3.88258 1 5.4087 1 7C1 8.5913 1.63214 10.1174 2.75736 11.2426C3.88258 12.3679 5.4087 13 7 13C8.5913 13 10.1174 12.3679 11.2426 11.2426C12.3679 10.1174 13 8.5913 13 7C13 5.4087 12.3679 3.88258 11.2426 2.75736C10.1174 1.63214 8.5913 1 7 1ZM7.6 10C7.6 10.1591 7.53679 10.3117 7.42426 10.4243C7.31174 10.5368 7.15913 10.6 7 10.6C6.84087 10.6 6.68826 10.5368 6.57574 10.4243C6.46321 10.3117 6.4 10.1591 6.4 10C6.4 9.84087 6.46321 9.68826 6.57574 9.57574C6.68826 9.46321 6.84087 9.4 7 9.4C7.15913 9.4 7.31174 9.46321 7.42426 9.57574C7.53679 9.68826 7.6 9.84087 7.6 10ZM5.8 5.5036C5.8 5.66273 5.73679 5.81534 5.62426 5.92786C5.51174 6.04039 5.35913 6.1036 5.2 6.1036C5.04087 6.1036 4.88826 6.04039 4.77574 5.92786C4.66321 5.81534 4.6 5.66273 4.6 5.5036C4.6 4.7968 4.9264 4.2484 5.404 3.892C5.8648 3.55 6.448 3.3976 7 3.3976C7.552 3.3976 8.134 3.55 8.596 3.892C9.0736 4.2472 9.4 4.7968 9.4 5.5024C9.4 6.0172 9.238 6.4084 8.9596 6.7096C8.74 6.9472 8.458 7.1092 8.2636 7.2196L8.2024 7.2556C7.978 7.3876 7.8472 7.4776 7.7584 7.594C7.6816 7.6924 7.6 7.858 7.6 8.1988C7.6 8.35793 7.53679 8.51054 7.42426 8.62306C7.31174 8.73559 7.15913 8.7988 7 8.7988C6.84087 8.7988 6.68826 8.73559 6.57574 8.62306C6.46321 8.51054 6.4 8.35793 6.4 8.1988C6.4 7.6408 6.544 7.2064 6.8056 6.8644C7.0528 6.5404 7.372 6.3508 7.5976 6.2188L7.6312 6.1996C7.8676 6.0628 7.9888 5.992 8.0776 5.8948C8.1376 5.8312 8.2 5.7364 8.2 5.5024C8.20496 5.37622 8.17824 5.25082 8.12227 5.13762C8.0663 5.02443 7.98287 4.92706 7.8796 4.8544C7.666 4.696 7.348 4.5988 7 4.5988C6.652 4.5988 6.3352 4.6972 6.1204 4.8568C6.01729 4.92961 5.93398 5.02701 5.87803 5.14017C5.82208 5.25333 5.79526 5.37866 5.8 5.5048V5.5036Z" fill="#D8D8D8"/>
</svg>
