<svg width="19" height="18" viewBox="0 0 19 18" fill="none" xmlns="http://www.w3.org/2000/svg">
<g clip-path="url(#clip0_2_867)">
<path d="M0.5 7.8752C0.5 8.49746 1.00273 9.0002 1.625 9.0002C2.24727 9.0002 2.75 8.49746 2.75 7.8752C2.75 6.01191 4.26172 4.5002 6.125 4.5002H11.75V5.6252C11.75 6.07871 12.0242 6.49004 12.4461 6.66582C12.868 6.8416 13.3496 6.74316 13.673 6.42324L15.923 4.17324C16.3625 3.73379 16.3625 3.02012 15.923 2.58066L13.673 0.330664C13.3496 0.00722656 12.868 -0.0876953 12.4461 0.0880859C12.0242 0.263867 11.75 0.67168 11.75 1.1252V2.2502H6.125C3.01719 2.2502 0.5 4.76738 0.5 7.8752ZM18.5 10.1252C18.5 9.50293 17.9973 9.0002 17.375 9.0002C16.7527 9.0002 16.25 9.50293 16.25 10.1252C16.25 11.9885 14.7383 13.5002 12.875 13.5002H7.25V12.3752C7.25 11.9217 6.97578 11.5104 6.55391 11.3346C6.13203 11.1588 5.65039 11.2572 5.32695 11.5771L3.07695 13.8271C2.6375 14.2666 2.6375 14.9803 3.07695 15.4197L5.32695 17.6697C5.65039 17.9932 6.13203 18.0881 6.55391 17.9123C6.97578 17.7365 7.25 17.3287 7.25 16.8717V15.7467H12.875C15.9828 15.7467 18.5 13.2295 18.5 10.1217V10.1252Z" fill="#8A8A8A"/>
</g>
<defs>
<clipPath id="clip0_2_867">
<rect width="18" height="18" fill="white" transform="translate(0.5)"/>
</clipPath>
</defs>
</svg>
