<svg width="20" height="20" viewBox="0 0 20 20" fill="none" xmlns="http://www.w3.org/2000/svg">
<path fill-rule="evenodd" clip-rule="evenodd" d="M10.7172 2.30239C10.6239 2.20669 10.5123 2.13062 10.3892 2.07869C10.266 2.02676 10.1337 2 10 2C9.86633 2 9.73401 2.02676 9.61084 2.07869C9.48767 2.13062 9.37614 2.20669 9.28283 2.30239L8.64378 2.95847C8.518 3.0877 8.35966 3.18058 8.18548 3.2273C8.0113 3.27402 7.82773 3.27285 7.65416 3.2239L6.77272 2.9755C6.64406 2.93929 6.50945 2.9292 6.37684 2.94582C6.24422 2.96244 6.11627 3.00543 6.00052 3.07227C5.88477 3.1391 5.78358 3.22842 5.70288 3.33497C5.62219 3.44152 5.56364 3.56314 5.53068 3.69267L5.30431 4.58012C5.25993 4.75483 5.16923 4.91432 5.04177 5.04177C4.91432 5.16923 4.75483 5.25993 4.58012 5.30431L3.69267 5.52968C3.56314 5.56264 3.44152 5.62119 3.33497 5.70188C3.22842 5.78257 3.1391 5.88377 3.07227 5.99952C3.00543 6.11526 2.96244 6.24322 2.94582 6.37583C2.9292 6.50845 2.93929 6.64306 2.9755 6.77171L3.2239 7.65416C3.27285 7.82773 3.27402 8.0113 3.2273 8.18548C3.18058 8.35966 3.0877 8.518 2.95847 8.64378L2.30239 9.28283C2.20669 9.37614 2.13062 9.48767 2.07869 9.61084C2.02676 9.73401 2 9.86633 2 10C2 10.1337 2.02676 10.266 2.07869 10.3892C2.13062 10.5123 2.20669 10.6239 2.30239 10.7172L2.95847 11.3572C3.08753 11.4829 3.1803 11.6411 3.22701 11.8151C3.27373 11.9891 3.27265 12.1724 3.2239 12.3458L2.9755 13.2273C2.93929 13.3559 2.9292 13.4905 2.94582 13.6232C2.96244 13.7558 3.00543 13.8837 3.07227 13.9995C3.1391 14.1152 3.22842 14.2164 3.33497 14.2971C3.44152 14.3778 3.56314 14.4364 3.69267 14.4693L4.58012 14.6957C4.75483 14.7401 4.91432 14.8308 5.04177 14.9582C5.16923 15.0857 5.25993 15.2452 5.30431 15.4199L5.52968 16.3073C5.56253 16.4369 5.621 16.5587 5.70165 16.6653C5.78229 16.772 5.88347 16.8614 5.99923 16.9284C6.11499 16.9953 6.24298 17.0384 6.37565 17.0551C6.50832 17.0717 6.64299 17.0617 6.77171 17.0255L7.65416 16.7771C7.82764 16.728 8.01115 16.7267 8.18533 16.7732C8.35951 16.8198 8.51789 16.9125 8.64378 17.0415L9.28283 17.6976C9.37614 17.7933 9.48767 17.8694 9.61084 17.9213C9.73401 17.9732 9.86633 18 10 18C10.1337 18 10.266 17.9732 10.3892 17.9213C10.5123 17.8694 10.6239 17.7933 10.7172 17.6976L11.3572 17.0415C11.483 16.9126 11.6412 16.8201 11.8152 16.7735C11.9892 16.727 12.1725 16.7282 12.3458 16.7771L13.2273 17.0255C13.356 17.0617 13.4907 17.0717 13.6234 17.0551C13.756 17.0384 13.884 16.9953 13.9998 16.9284C14.1155 16.8614 14.2167 16.772 14.2974 16.6653C14.378 16.5587 14.4365 16.4369 14.4693 16.3073L14.6957 15.4199C14.7401 15.2452 14.8308 15.0857 14.9582 14.9582C15.0857 14.8308 15.2452 14.7401 15.4199 14.6957L16.3073 14.4703C16.4369 14.4375 16.5587 14.379 16.6653 14.2984C16.772 14.2177 16.8614 14.1165 16.9284 14.0008C16.9953 13.885 17.0384 13.757 17.0551 13.6244C17.0717 13.4917 17.0617 13.357 17.0255 13.2283L16.7771 12.3468C16.728 12.1734 16.7267 11.9899 16.7732 11.8157C16.8198 11.6415 16.9125 11.4831 17.0415 11.3572L17.6976 10.7172C17.7933 10.6239 17.8694 10.5123 17.9213 10.3892C17.9732 10.266 18 10.1337 18 10C18 9.86633 17.9732 9.73401 17.9213 9.61084C17.8694 9.48767 17.7933 9.37614 17.6976 9.28283L17.0415 8.64378C16.9125 8.51789 16.8198 8.35951 16.7732 8.18533C16.7267 8.01115 16.728 7.82764 16.7771 7.65416L17.0255 6.77272C17.0617 6.64399 17.0717 6.50932 17.0551 6.37665C17.0384 6.24398 16.9953 6.11599 16.9284 6.00023C16.8614 5.88448 16.772 5.78329 16.6653 5.70265C16.5587 5.622 16.4369 5.56353 16.3073 5.53068L15.4199 5.30431C15.2452 5.25993 15.0857 5.16923 14.9582 5.04177C14.8308 4.91432 14.7401 4.75483 14.6957 4.58012L14.4703 3.69267C14.4374 3.56314 14.3788 3.44152 14.2981 3.33497C14.2174 3.22842 14.1162 3.1391 14.0005 3.07227C13.8847 3.00543 13.7568 2.96244 13.6242 2.94582C13.4915 2.9292 13.3569 2.93929 13.2283 2.9755L12.3468 3.2239C12.1731 3.27304 11.9894 3.27431 11.815 3.22759C11.6406 3.18086 11.4821 3.08788 11.3562 2.95847L10.7172 2.30239ZM13.7792 8.2872C13.9226 8.14879 14.0052 7.95907 14.0088 7.75977C14.0124 7.56046 13.9366 7.36791 13.7982 7.22446C13.6598 7.081 13.4701 6.99841 13.2708 6.99484C13.0715 6.99127 12.8789 7.06702 12.7355 7.20542L8.5947 11.204L7.27554 9.88682C7.13435 9.74602 6.943 9.66708 6.74361 9.66736C6.54421 9.66764 6.35309 9.74712 6.2123 9.88832C6.0715 10.0295 5.99256 10.2209 5.99284 10.4202C5.99313 10.6196 6.07261 10.8108 6.2138 10.9516L8.05582 12.7886C8.19493 12.9276 8.38299 13.0065 8.57963 13.0083C8.77627 13.0102 8.96581 12.9349 9.10754 12.7986L13.7792 8.2872Z" fill="#161414"/>
</svg>
